<?xml version="1.0" encoding="UTF-8"?>
<!DOCTYPE svg PUBLIC "-//W3C//DTD SVG 1.1//EN" "http://www.w3.org/Graphics/SVG/1.1/DTD/svg11.dtd">
<svg xmlns="http://www.w3.org/2000/svg" version="1.1" width="3500px" height="3161px" style="shape-rendering:geometricPrecision; text-rendering:geometricPrecision; image-rendering:optimizeQuality; fill-rule:evenodd; clip-rule:evenodd" xmlns:xlink="http://www.w3.org/1999/xlink">
<g><path style="opacity:0.998" fill="#fe0000" d="M 1808.5,-0.5 C 1809.5,-0.5 1810.5,-0.5 1811.5,-0.5C 1790.39,146.17 1816.22,283.836 1889,412.5C 1927.2,476.017 1968.53,537.351 2013,596.5C 2067.94,670.04 2123.61,743.04 2180,815.5C 2233.45,885.072 2284.45,956.405 2333,1029.5C 2380.77,1102.07 2417.44,1180.07 2443,1263.5C 2462.53,1324.15 2468.86,1386.15 2462,1449.5C 2459.92,1468.23 2457.42,1486.9 2454.5,1505.5C 2518.3,1517.7 2581.3,1533.2 2643.5,1552C 2781.92,1592.38 2915.59,1644.72 3044.5,1709C 3163.6,1769.83 3268.43,1849.67 3359,1948.5C 3399.94,1994.34 3433.94,2045.01 3461,2100.5C 3483.89,2149.41 3496.73,2200.74 3499.5,2254.5C 3499.5,2276.83 3499.5,2299.17 3499.5,2321.5C 3496.65,2375.55 3483.82,2427.22 3461,2476.5C 3432.79,2537.64 3396.12,2592.97 3351,2642.5C 3287.55,2709.99 3217.05,2768.49 3139.5,2818C 3022.78,2891.27 2899.11,2950.6 2768.5,2996C 2595.68,3056.03 2418.68,3099.03 2237.5,3125C 2148.96,3138.54 2059.96,3147.54 1970.5,3152C 1896.04,3155.76 1821.71,3158.59 1747.5,3160.5C 1693.5,3160.5 1639.5,3160.5 1585.5,3160.5C 1382.47,3150.14 1181.8,3121.97 983.5,3076C 827.791,3039.99 677.457,2988.65 532.5,2922C 438.823,2878.51 351.156,2825.84 269.5,2764C 220.191,2725.69 175.024,2682.86 134,2635.5C 78.4155,2570.36 38.4155,2496.36 14,2413.5C 6.77046,2386.78 1.93712,2359.78 -0.5,2332.5C -0.5,2314.5 -0.5,2296.5 -0.5,2278.5C 11.3387,2175.51 50.5054,2084.51 117,2005.5C 173.276,1942.21 235.443,1885.71 303.5,1836C 363.135,1792.16 425.801,1752.83 491.5,1718C 670.895,1631.25 856.561,1560.75 1048.5,1506.5C 1050.44,1522.94 1054.28,1538.94 1060,1554.5C 1074.15,1591.46 1091.48,1626.8 1112,1660.5C 1157.82,1735.3 1207.15,1807.63 1260,1877.5C 1306.76,1938.68 1353.76,1999.68 1401,2060.5C 1469.7,2150.22 1535.7,2241.89 1599,2335.5C 1635.45,2390.34 1669.12,2447.01 1700,2505.5C 1714.63,2538.41 1721.46,2572.91 1720.5,2609C 1719.75,2623.84 1719.25,2638.68 1719,2653.5C 1752.51,2622.68 1781.51,2588.35 1806,2550.5C 1843.59,2476.19 1857.93,2397.52 1849,2314.5C 1844.82,2236.44 1826.82,2161.77 1795,2090.5C 1761.54,2015.21 1721.21,1944.21 1674,1877.5C 1646.82,1839.81 1619.15,1802.48 1591,1765.5C 1539.62,1701.79 1488.62,1637.79 1438,1573.5C 1389.61,1510.42 1345.94,1444.09 1307,1374.5C 1238.2,1246.15 1210.53,1109.48 1224,964.5C 1232.18,884.719 1256.52,810.386 1297,741.5C 1326.37,693.624 1365.87,656.624 1415.5,630.5C 1415.83,632.167 1416.17,633.833 1416.5,635.5C 1412.02,699.549 1412.52,763.549 1418,827.5C 1423.29,873.037 1435.29,916.703 1454,958.5C 1480.42,1015.37 1511.42,1069.37 1547,1120.5C 1597.58,1190.97 1650.58,1259.64 1706,1326.5C 1776.42,1410.25 1846.09,1494.58 1915,1579.5C 1959.46,1635.72 1999.46,1695.06 2035,1757.5C 2058.04,1799.61 2075.37,1843.95 2087,1890.5C 2092.81,1916.2 2096.48,1942.2 2098,1968.5C 2098.17,2002.5 2098.67,2036.5 2099.5,2070.5C 2127.44,2049.39 2152.28,2025.06 2174,1997.5C 2211.71,1939.03 2234.38,1875.03 2242,1805.5C 2254.56,1686.85 2235.56,1573.52 2185,1465.5C 2159.78,1413.37 2130.78,1363.7 2098,1316.5C 2066.44,1271.61 2034.11,1227.27 2001,1183.5C 1947.95,1116.12 1895.28,1048.45 1843,980.5C 1785.13,902.832 1734.8,820.166 1692,732.5C 1662.95,671.729 1641.29,608.396 1627,542.5C 1615.33,481.946 1612.33,420.946 1618,359.5C 1621.55,295.087 1635.55,233.087 1660,173.5C 1692.08,100.586 1741.58,42.5859 1808.5,-0.5 Z"/></g>
</svg>
