<?xml version="1.0" encoding="UTF-8"?>
<!DOCTYPE svg PUBLIC "-//W3C//DTD SVG 1.1//EN" "http://www.w3.org/Graphics/SVG/1.1/DTD/svg11.dtd">
<svg xmlns="http://www.w3.org/2000/svg" version="1.1" width="512px" height="512px" style="shape-rendering:geometricPrecision; text-rendering:geometricPrecision; image-rendering:optimizeQuality; fill-rule:evenodd; clip-rule:evenodd" xmlns:xlink="http://www.w3.org/1999/xlink">
<g><path style="opacity:1" fill="#f2f5fa" d="M -0.5,-0.5 C 170.167,-0.5 340.833,-0.5 511.5,-0.5C 511.5,170.167 511.5,340.833 511.5,511.5C 340.833,511.5 170.167,511.5 -0.5,511.5C -0.5,340.833 -0.5,170.167 -0.5,-0.5 Z"/></g>
<g><path style="opacity:1" fill="#9fc7fe" d="M 276.5,310.5 C 281.584,302.669 285.918,294.335 289.5,285.5C 289.376,284.893 289.043,284.56 288.5,284.5C 291.113,277.997 293.113,271.331 294.5,264.5C 299.956,249.099 302.622,233.099 302.5,216.5C 303.477,213.713 303.81,210.713 303.5,207.5C 267.004,206.502 230.337,206.168 193.5,206.5C 194.944,165.603 212.944,134.436 247.5,113C 278.746,96.3029 311.079,93.9696 344.5,106C 387.451,125.725 410.118,159.225 412.5,206.5C 411.067,256.557 387.4,291.39 341.5,311C 320.53,317.95 299.197,319.283 277.5,315C 276.692,314.692 276.025,314.192 275.5,313.5C 276.127,312.583 276.461,311.583 276.5,310.5 Z"/></g>
<g><path style="opacity:1" fill="#4076c1" d="M 98.5,208.5 C 166.665,207.501 234.998,207.167 303.5,207.5C 303.81,210.713 303.477,213.713 302.5,216.5C 302.5,213.833 302.5,211.167 302.5,208.5C 266.167,208.5 229.833,208.5 193.5,208.5C 161.833,208.5 130.167,208.5 98.5,208.5 Z"/></g>
<g><path style="opacity:1" fill="#052c6d" d="M 193.5,209.5 C 193.5,209.167 193.5,208.833 193.5,208.5C 229.833,208.5 266.167,208.5 302.5,208.5C 302.5,211.167 302.5,213.833 302.5,216.5C 302.622,233.099 299.956,249.099 294.5,264.5C 298.983,246.453 301.316,228.119 301.5,209.5C 265.5,209.5 229.5,209.5 193.5,209.5 Z"/></g>
<g><path style="opacity:1" fill="#0059d5" d="M 193.5,209.5 C 195.382,250.111 213.382,281.278 247.5,303C 255.149,307.325 263.149,310.825 271.5,313.5C 272.298,313.957 272.631,314.624 272.5,315.5C 247.97,354.353 214.303,382.353 171.5,399.5C 171.44,398.957 171.107,398.624 170.5,398.5C 162.713,401.205 155.047,403.872 147.5,406.5C 136.148,409.601 124.481,411.601 112.5,412.5C 108.366,411.515 104.032,411.182 99.5,411.5C 99.5,344.167 99.5,276.833 99.5,209.5C 130.833,209.5 162.167,209.5 193.5,209.5 Z"/></g>
<g><path style="opacity:1" fill="#003e95" d="M 193.5,209.5 C 229.5,209.5 265.5,209.5 301.5,209.5C 301.316,228.119 298.983,246.453 294.5,264.5C 293.113,271.331 291.113,277.997 288.5,284.5C 284.502,293.162 280.502,301.829 276.5,310.5C 274.926,311.984 273.593,313.651 272.5,315.5C 272.631,314.624 272.298,313.957 271.5,313.5C 263.149,310.825 255.149,307.325 247.5,303C 213.382,281.278 195.382,250.111 193.5,209.5 Z"/></g>
<g><path style="opacity:1" fill="#003ea4" d="M 98.5,208.5 C 130.167,208.5 161.833,208.5 193.5,208.5C 193.5,208.833 193.5,209.167 193.5,209.5C 162.167,209.5 130.833,209.5 99.5,209.5C 99.5,276.833 99.5,344.167 99.5,411.5C 104.032,411.182 108.366,411.515 112.5,412.5C 107.833,412.5 103.167,412.5 98.5,412.5C 98.5,344.5 98.5,276.5 98.5,208.5 Z"/></g>
<g><path style="opacity:1" fill="#c5dbf9" d="M 288.5,284.5 C 289.043,284.56 289.376,284.893 289.5,285.5C 285.918,294.335 281.584,302.669 276.5,310.5C 280.502,301.829 284.502,293.162 288.5,284.5 Z"/></g>
<g><path style="opacity:1" fill="#1b4eaa" d="M 171.5,399.5 C 163.751,402.638 155.751,404.971 147.5,406.5C 155.047,403.872 162.713,401.205 170.5,398.5C 171.107,398.624 171.44,398.957 171.5,399.5 Z"/></g>
</svg>
